name C:\Users\r0593348\3dpredictsim\Results\MidTarsalJoint\Fal_s1_bCst_PF_Natali2010_ls150_MT_k300_d020_MTP_T5_ig24.mot
datacolumns 128
datarows 4
range 0.56470284 0.59858501
endheader
time	pelvis_tilt	pelvis_list	pelvis_rotation	pelvis_tx	pelvis_ty	pelvis_tz	hip_flexion_l	hip_adduction_l	hip_rotation_l	hip_flexion_r	hip_adduction_r	hip_rotation_r	knee_angle_l	knee_angle_r	ankle_angle_l	ankle_angle_r	subtalar_angle_l	subtalar_angle_r	mtj_angle_l	mtj_angle_r	mtp_angle_l	mtp_angle_r	lumbar_extension	lumbar_bending	lumbar_rotation	arm_flex_l	arm_add_l	arm_rot_l	arm_flex_r	arm_add_r	arm_rot_r	elbow_flex_l	elbow_flex_r	pro_sup_l	pro_sup_r	glut_med1_l/activation	glut_med2_l/activation	glut_med3_l/activation	glut_min1_l/activation	glut_min2_l/activation	glut_min3_l/activation	semimem_l/activation	semiten_l/activation	bifemlh_l/activation	bifemsh_l/activation	sar_l/activation	add_long_l/activation	add_brev_l/activation	add_mag1_l/activation	add_mag2_l/activation	add_mag3_l/activation	tfl_l/activation	pect_l/activation	grac_l/activation	glut_max1_l/activation	glut_max2_l/activation	glut_max3_l/activation	iliacus_l/activation	psoas_l/activation	quad_fem_l/activation	gem_l/activation	peri_l/activation	rect_fem_l/activation	vas_med_l/activation	vas_int_l/activation	vas_lat_l/activation	med_gas_l/activation	lat_gas_l/activation	soleus_l/activation	tib_post_l/activation	flex_dig_l/activation	flex_hal_l/activation	tib_ant_l/activation	per_brev_l/activation	per_long_l/activation	per_tert_l/activation	ext_dig_l/activation	ext_hal_l/activation	ercspn_l/activation	intobl_l/activation	extobl_l/activation	glut_med1_r/activation	glut_med2_r/activation	glut_med3_r/activation	glut_min1_r/activation	glut_min2_r/activation	glut_min3_r/activation	semimem_r/activation	semiten_r/activation	bifemlh_r/activation	bifemsh_r/activation	sar_r/activation	add_long_r/activation	add_brev_r/activation	add_mag1_r/activation	add_mag2_r/activation	add_mag3_r/activation	tfl_r/activation	pect_r/activation	grac_r/activation	glut_max1_r/activation	glut_max2_r/activation	glut_max3_r/activation	iliacus_r/activation	psoas_r/activation	quad_fem_r/activation	gem_r/activation	peri_r/activation	rect_fem_r/activation	vas_med_r/activation	vas_int_r/activation	vas_lat_r/activation	med_gas_r/activation	lat_gas_r/activation	soleus_r/activation	tib_post_r/activation	flex_dig_r/activation	flex_hal_r/activation	tib_ant_r/activation	per_brev_r/activation	per_long_r/activation	per_tert_r/activation	ext_dig_r/activation	ext_hal_r/activation	ercspn_r/activation	intobl_r/activation	extobl_r/activation	
          0.56470284	         -2.92990922	          2.18151452	         -5.07272352	          0.70587855	          0.91907617	          0.00174664	         29.68979627	          3.47564182	         -1.66249905	        -16.87001951	         -1.00434993	          6.67958380	        -11.62880412	         -6.92727561	          5.94098912	         -1.52946482	         -5.61262090	          7.33294061	         -0.03808812	          5.37994396	         -0.85128465	         10.60024883	         -1.95783192	         -0.29549592	          2.04457584	         -4.53789044	        -13.46311815	          7.28067576	          5.59563140	        -13.45075462	         16.97284912	         16.20852894	         32.03374358	         86.51662706	         86.51662706	          0.10926286	          0.05000050	          0.05941217	          0.05000024	          0.05000034	          0.05000162	          0.21663931	          0.05941429	          0.06155553	          0.05000081	          0.05000110	          0.08104536	          0.20650277	          0.20903103	          0.15585690	          0.10762048	          0.05941201	          0.05008784	          0.07020612	          0.06848802	          0.07423969	          0.11549078	          0.05000019	          0.05000023	          0.27176816	          0.05034038	          0.05000140	          0.05000040	          0.07716019	          0.07793099	          0.06706506	          0.05140613	          0.05000293	          0.05941134	          0.05000021	          0.05000113	          0.05000105	          0.47122928	          0.29977628	          0.18399655	          0.10892341	          0.46205912	          0.16781158	          0.06427594	          0.13405309	          0.11844276	          0.32394953	          0.11704782	          0.08388325	          0.32962754	          0.21633096	          0.11843783	          0.05000309	          0.05000069	          0.05000048	          0.06510116	          0.11829991	          0.05000030	          0.05000034	          0.05000049	          0.05000138	          0.05000145	          0.34064586	          0.05000132	          0.05000097	          0.05047082	          0.05012961	          0.05000428	          0.43379402	          0.63898945	          0.05000089	          0.05000238	          0.06921133	          0.24304740	          0.05000373	          0.05000225	          0.05000190	          0.32114145	          0.43856807	          0.34940252	          0.27594038	          0.28394870	          0.35295402	          0.05000011	          0.05003008	          0.12831109	          0.05000052	          0.05000016	          0.05000057	          0.05000003	          0.05000008	          0.05000014	
          0.57599690	         -2.92940626	          2.27268853	         -5.37648237	          0.72264692	          0.91806160	          0.00155921	         29.09734006	          3.80541197	         -1.45886175	        -16.86144856	         -1.30665012	          6.46386878	        -11.46619169	         -8.63304039	          5.35472020	         -1.98964954	         -5.99014612	          8.27570861	         -0.00706319	          4.71520026	         -0.85683442	         12.10759266	         -1.77320205	         -0.49115091	          2.11175791	         -5.41663233	        -13.46120430	          7.02603911	          5.38664216	        -13.45649980	         17.33238517	         15.82454976	         33.21678294	         86.51662706	         86.51662706	          0.09195414	          0.05852807	          0.05000059	          0.05941365	          0.05941191	          0.05000307	          0.18864399	          0.05000242	          0.05180434	          0.05000146	          0.05000941	          0.11392849	          0.17871377	          0.22657564	          0.17483450	          0.11320721	          0.05000072	          0.05042598	          0.05908540	          0.05763883	          0.06247915	          0.12515182	          0.05884388	          0.05037890	          0.50038738	          0.15653120	          0.10305623	          0.07059585	          0.17732793	          0.17708845	          0.15433253	          0.05000004	          0.05000010	          0.05000001	          0.05000071	          0.05000224	          0.05000191	          0.53088043	          0.26236351	          0.19534513	          0.28753161	          0.48703980	          0.17138485	          0.05420880	          0.11281710	          0.09967966	          0.27263232	          0.09850577	          0.07059501	          0.27741001	          0.18206107	          0.09967563	          0.05000401	          0.05000094	          0.05000089	          0.05478837	          0.09956061	          0.07369694	          0.05348047	          0.05001182	          0.05001458	          0.05000319	          0.28668317	          0.07241675	          0.05011943	          0.05000572	          0.05000300	          0.05000335	          0.36507483	          0.59793404	          0.05000255	          0.05016171	          0.05941220	          0.20454529	          0.05000416	          0.10075225	          0.13786340	          0.27026784	          0.36909260	          0.32566387	          0.26561563	          0.24490420	          0.32743987	          0.05000023	          0.05000229	          0.12970631	          0.05000102	          0.05000027	          0.05000106	          0.05000010	          0.07059478	          0.05000010	
          0.58729095	         -2.92515285	          2.35913875	         -5.65514735	          0.73975420	          0.91712142	          0.00138057	         28.40891271	          4.08224266	         -1.20169761	        -16.79115448	         -1.60654470	          6.24501922	        -11.87429975	        -10.43832779	          4.69040961	         -2.57447517	         -6.37863206	          9.19794747	         -0.11818939	          3.88946917	         -0.88247452	         13.73057517	         -1.56606258	         -0.69070264	          2.16916104	         -6.34022459	        -13.46124437	          6.79892277	          5.09586439	        -13.46195969	         17.62041789	         15.51587460	         34.38070282	         86.51662706	         86.51662706	          0.23609119	          0.05000018	          0.21618517	          0.05000176	          0.05000047	          0.05000057	          0.17196474	          0.05000091	          0.06547718	          0.05000028	          0.05000134	          0.09588089	          0.20437027	          0.19068363	          0.14713899	          0.12026367	          0.05000151	          0.05949469	          0.10001991	          0.05000054	          0.05258197	          0.10532647	          0.05653299	          0.05000290	          0.42111858	          0.13173450	          0.14714513	          0.05941244	          0.14923667	          0.14903513	          0.12988406	          0.05733886	          0.05941143	          0.05687371	          0.05941120	          0.05000492	          0.05000628	          0.44678128	          0.27928749	          0.16439983	          0.24198268	          0.52083090	          0.14423504	          0.05000009	          0.11879764	          0.08388891	          0.29447755	          0.08290104	          0.05941181	          0.23346473	          0.15322003	          0.08388561	          0.05000351	          0.05000123	          0.05000118	          0.05000036	          0.08378975	          0.10764326	          0.05940954	          0.05940887	          0.05364071	          0.05939987	          0.24126889	          0.06103456	          0.05000878	          0.05013848	          0.05010918	          0.05030045	          0.30757646	          0.57461898	          0.05026825	          0.05000326	          0.05000065	          0.17214229	          0.15431722	          0.08489076	          0.11620422	          0.22745335	          0.31062283	          0.27407391	          0.22353999	          0.20610871	          0.27556965	          0.05000005	          0.05000159	          0.15704549	          0.05000025	          0.05000007	          0.05000031	          0.05000028	          0.05941165	          0.05941140	
          0.59858501	         -2.91892848	          2.44554266	         -5.90082802	          0.75704717	          0.91627983	          0.00119337	         27.62220447	          4.31805606	         -0.93675686	        -16.63950578	         -1.90385101	          6.02838480	        -12.33974886	        -12.35520294	          4.09304330	         -3.30019549	         -6.76289616	         10.07808194	         -0.16984601	          2.93596203	         -0.85166316	         15.40503749	         -1.35206831	         -0.89889460	          2.21769981	         -7.27000203	        -13.46396953	          6.61376408	          4.74292289	        -13.46850802	         17.84282241	         15.26119433	         35.51783424	         86.51662706	         86.51662706	          0.29241755	          0.25236748	          0.31045864	          0.14879889	          0.18465467	          0.16370857	          0.14472300	          0.07051756	          0.05510487	          0.08294629	          0.05000745	          0.08069201	          0.17199503	          0.16047687	          0.12383062	          0.13541875	          0.05000136	          0.05007068	          0.08417712	          0.18972180	          0.14461952	          0.11021361	          0.05000023	          0.05000029	          0.35440720	          0.11086619	          0.12383616	          0.05000072	          0.12559563	          0.12542611	          0.10930874	          0.05000022	          0.05000056	          0.05000005	          0.05000011	          0.05000047	          0.05000054	          0.56436446	          0.34108603	          0.18904478	          0.47638435	          0.54483264	          0.24292340	          0.07108101	          0.10534638	          0.07059965	          0.30213068	          0.06976836	          0.05000032	          0.35247438	          0.12894789	          0.07059698	          0.05000503	          0.05000044	          0.05000035	          0.05000084	          0.07058263	          0.09615291	          0.05000075	          0.05000068	          0.05000132	          0.05000079	          0.20820593	          0.05141989	          0.05000125	          0.05000277	          0.05000176	          0.05000112	          0.25888537	          0.54622465	          0.05000024	          0.05000149	          0.05000096	          0.14487247	          0.12987188	          0.07144341	          0.14046729	          0.19142131	          0.26141551	          0.23065646	          0.18812807	          0.17345836	          0.23191559	          0.05000012	          0.08485572	          0.15440319	          0.05000064	          0.05000055	          0.05000071	          0.05925241	          0.05000003	          0.05000008	
